<svg xmlns="http://www.w3.org/2000/svg" viewBox="0 0 92.3 122.9" style="enable-background:new 0 0 92.27 122.88" xml:space="preserve"><path d="M18.6 54.9C15.7 28.8 31 10.5 59.6 0 42 22.7 74.3 47.3 76.1 70.9a62.2 62.2 0 0 0 7-29.5c21.5 33.7 3.7 88.6-43.4 80.7-4.4-.7-8.5-2-12.3-4.1A55.5 55.5 0 0 1 0 69.7 52 52 0 0 1 12 38c.8 8.5 2.8 14.8 6.6 16.9z" style="fill-rule:evenodd;clip-rule:evenodd;fill:#ec6f59"/><path d="M33.9 92.6c-4.9-12.6-4.2-32.8 9.4-40 0 23.3 23 26.3 18.8 51.2 4-4.5 5.9-11.6 6.2-17.2 6.3 14.3 1.4 25.7-7.5 31.5-27 17.6-50.2-18.2-34.7-37.8.4 4.4 5.8 11.2 7.8 12.3z" style="fill-rule:evenodd;clip-rule:evenodd;fill:#fad15c"/></svg>